P3
# example from the man page
2 2
15
 1  2  0    0  3  3
 4  5  0    0 15  6
