P3
# example from the man page
3 3
15
 1  2  0    0  3  3   11  0 11 
 4  5  0    0 15  6    5  4  0
 7  8  9   10 14  9    1  1  2